<mxfile host="app.diagrams.net" modified="2021-03-04T15:38:28.165Z" agent="5.0 (Windows NT 10.0; Win64; x64) AppleWebKit/537.36 (KHTML, like Gecko) Chrome/88.0.4324.190 Safari/537.36" etag="Mcdb6ZGhoXBxeEq9LGtG" version="14.4.4" type="github">
  <diagram id="N0Fj0vDeg7R2EITsKwAS" name="Page-1">
    <mxGraphModel dx="3201" dy="1149" grid="1" gridSize="10" guides="1" tooltips="1" connect="1" arrows="1" fold="1" page="1" pageScale="1" pageWidth="827" pageHeight="1169" math="0" shadow="0">
      <root>
        <mxCell id="0" />
        <mxCell id="1" parent="0" />
        <mxCell id="nreC14nt42jZaOP40qbg-6" value="hours &amp;gt; 1" style="rounded=0;orthogonalLoop=1;jettySize=auto;html=1;" edge="1" parent="1" source="nreC14nt42jZaOP40qbg-2" target="nreC14nt42jZaOP40qbg-3">
          <mxGeometry relative="1" as="geometry" />
        </mxCell>
        <mxCell id="nreC14nt42jZaOP40qbg-7" value="hours &amp;gt; 0" style="edgeStyle=none;rounded=0;orthogonalLoop=1;jettySize=auto;html=1;" edge="1" parent="1" source="nreC14nt42jZaOP40qbg-2" target="nreC14nt42jZaOP40qbg-4">
          <mxGeometry relative="1" as="geometry" />
        </mxCell>
        <mxCell id="nreC14nt42jZaOP40qbg-8" value="hours &amp;lt;= 0" style="edgeStyle=none;rounded=0;orthogonalLoop=1;jettySize=auto;html=1;" edge="1" parent="1" source="nreC14nt42jZaOP40qbg-2" target="nreC14nt42jZaOP40qbg-5">
          <mxGeometry relative="1" as="geometry" />
        </mxCell>
        <mxCell id="nreC14nt42jZaOP40qbg-2" value="1" style="ellipse;whiteSpace=wrap;html=1;aspect=fixed;" vertex="1" parent="1">
          <mxGeometry x="380" y="100" width="80" height="80" as="geometry" />
        </mxCell>
        <mxCell id="nreC14nt42jZaOP40qbg-12" value="hourString =&lt;br&gt;hours + &quot;hours&quot;" style="edgeStyle=none;rounded=0;orthogonalLoop=1;jettySize=auto;html=1;" edge="1" parent="1" source="nreC14nt42jZaOP40qbg-3" target="nreC14nt42jZaOP40qbg-10">
          <mxGeometry relative="1" as="geometry" />
        </mxCell>
        <mxCell id="nreC14nt42jZaOP40qbg-3" value="2" style="ellipse;whiteSpace=wrap;html=1;aspect=fixed;" vertex="1" parent="1">
          <mxGeometry x="220" y="260" width="80" height="80" as="geometry" />
        </mxCell>
        <mxCell id="nreC14nt42jZaOP40qbg-11" value="hourString =&lt;br&gt;hours + &quot;hour&quot;" style="edgeStyle=none;rounded=0;orthogonalLoop=1;jettySize=auto;html=1;" edge="1" parent="1" source="nreC14nt42jZaOP40qbg-4" target="nreC14nt42jZaOP40qbg-10">
          <mxGeometry relative="1" as="geometry" />
        </mxCell>
        <mxCell id="nreC14nt42jZaOP40qbg-4" value="3" style="ellipse;whiteSpace=wrap;html=1;aspect=fixed;" vertex="1" parent="1">
          <mxGeometry x="380" y="260" width="80" height="80" as="geometry" />
        </mxCell>
        <mxCell id="nreC14nt42jZaOP40qbg-13" value="hourString =&lt;br&gt;&quot;&quot;" style="edgeStyle=none;rounded=0;orthogonalLoop=1;jettySize=auto;html=1;" edge="1" parent="1" source="nreC14nt42jZaOP40qbg-5" target="nreC14nt42jZaOP40qbg-10">
          <mxGeometry relative="1" as="geometry" />
        </mxCell>
        <mxCell id="nreC14nt42jZaOP40qbg-5" value="4" style="ellipse;whiteSpace=wrap;html=1;aspect=fixed;" vertex="1" parent="1">
          <mxGeometry x="540" y="260" width="80" height="80" as="geometry" />
        </mxCell>
        <mxCell id="nreC14nt42jZaOP40qbg-9" value="&lt;b&gt;int &lt;/b&gt;mins&lt;br&gt;&lt;span style=&quot;font-size: 12px ; background-color: rgb(248 , 249 , 250)&quot;&gt;hours = min / 60&lt;/span&gt;&lt;br style=&quot;font-size: 12px ; background-color: rgb(248 , 249 , 250)&quot;&gt;&lt;span style=&quot;font-size: 12px ; background-color: rgb(248 , 249 , 250)&quot;&gt;minsPast = mins % 60&lt;br&gt;&lt;/span&gt;minutesString = null&lt;br&gt;hoursString = null" style="endArrow=classic;html=1;entryX=0.5;entryY=0;entryDx=0;entryDy=0;" edge="1" parent="1" target="nreC14nt42jZaOP40qbg-2">
          <mxGeometry x="-0.1111" width="50" height="50" relative="1" as="geometry">
            <mxPoint x="420" y="10" as="sourcePoint" />
            <mxPoint x="340" y="80" as="targetPoint" />
            <mxPoint as="offset" />
          </mxGeometry>
        </mxCell>
        <mxCell id="nreC14nt42jZaOP40qbg-19" value="hours &amp;gt;= 1" style="edgeStyle=none;rounded=0;orthogonalLoop=1;jettySize=auto;html=1;" edge="1" parent="1" source="nreC14nt42jZaOP40qbg-10" target="nreC14nt42jZaOP40qbg-16">
          <mxGeometry relative="1" as="geometry" />
        </mxCell>
        <mxCell id="nreC14nt42jZaOP40qbg-21" value="minsPast &amp;lt;= 0&lt;br&gt;||&lt;br&gt;hours &amp;lt; 1" style="edgeStyle=orthogonalEdgeStyle;rounded=0;orthogonalLoop=1;jettySize=auto;html=1;" edge="1" parent="1" source="nreC14nt42jZaOP40qbg-10" target="nreC14nt42jZaOP40qbg-20">
          <mxGeometry relative="1" as="geometry" />
        </mxCell>
        <mxCell id="nreC14nt42jZaOP40qbg-22" value="minsPast &amp;gt; 1" style="edgeStyle=orthogonalEdgeStyle;rounded=0;orthogonalLoop=1;jettySize=auto;html=1;" edge="1" parent="1" source="nreC14nt42jZaOP40qbg-10" target="nreC14nt42jZaOP40qbg-15">
          <mxGeometry relative="1" as="geometry" />
        </mxCell>
        <mxCell id="nreC14nt42jZaOP40qbg-23" value="minsPast &amp;gt; 0" style="edgeStyle=none;rounded=0;orthogonalLoop=1;jettySize=auto;html=1;" edge="1" parent="1" source="nreC14nt42jZaOP40qbg-10" target="nreC14nt42jZaOP40qbg-14">
          <mxGeometry relative="1" as="geometry" />
        </mxCell>
        <mxCell id="nreC14nt42jZaOP40qbg-10" value="5" style="ellipse;whiteSpace=wrap;html=1;aspect=fixed;" vertex="1" parent="1">
          <mxGeometry x="380" y="420" width="80" height="80" as="geometry" />
        </mxCell>
        <mxCell id="nreC14nt42jZaOP40qbg-29" value="minuteString =&lt;br&gt;minsPast + &quot;Minute&quot;" style="edgeStyle=none;rounded=0;orthogonalLoop=1;jettySize=auto;html=1;" edge="1" parent="1" source="nreC14nt42jZaOP40qbg-14" target="nreC14nt42jZaOP40qbg-27">
          <mxGeometry relative="1" as="geometry" />
        </mxCell>
        <mxCell id="nreC14nt42jZaOP40qbg-14" value="7" style="ellipse;whiteSpace=wrap;html=1;aspect=fixed;" vertex="1" parent="1">
          <mxGeometry x="260" y="580" width="80" height="80" as="geometry" />
        </mxCell>
        <mxCell id="nreC14nt42jZaOP40qbg-28" value="minuteString =&lt;br&gt;minsPast + &quot;Minutes&quot;" style="edgeStyle=orthogonalEdgeStyle;rounded=0;orthogonalLoop=1;jettySize=auto;html=1;" edge="1" parent="1" source="nreC14nt42jZaOP40qbg-15" target="nreC14nt42jZaOP40qbg-27">
          <mxGeometry relative="1" as="geometry">
            <Array as="points">
              <mxPoint x="180" y="780" />
            </Array>
          </mxGeometry>
        </mxCell>
        <mxCell id="nreC14nt42jZaOP40qbg-15" value="6" style="ellipse;whiteSpace=wrap;html=1;aspect=fixed;" vertex="1" parent="1">
          <mxGeometry x="140" y="580" width="80" height="80" as="geometry" />
        </mxCell>
        <mxCell id="nreC14nt42jZaOP40qbg-30" value="minuteString =&lt;br&gt;&quot;&quot;" style="edgeStyle=none;rounded=0;orthogonalLoop=1;jettySize=auto;html=1;" edge="1" parent="1" source="nreC14nt42jZaOP40qbg-16" target="nreC14nt42jZaOP40qbg-27">
          <mxGeometry relative="1" as="geometry" />
        </mxCell>
        <mxCell id="nreC14nt42jZaOP40qbg-16" value="8" style="ellipse;whiteSpace=wrap;html=1;aspect=fixed;" vertex="1" parent="1">
          <mxGeometry x="500" y="580" width="80" height="80" as="geometry" />
        </mxCell>
        <mxCell id="nreC14nt42jZaOP40qbg-31" value="minuteString =&lt;br&gt;minsPast + &quot;Minutes&quot;" style="edgeStyle=orthogonalEdgeStyle;rounded=0;orthogonalLoop=1;jettySize=auto;html=1;" edge="1" parent="1" source="nreC14nt42jZaOP40qbg-20" target="nreC14nt42jZaOP40qbg-27">
          <mxGeometry relative="1" as="geometry">
            <Array as="points">
              <mxPoint x="660" y="780" />
            </Array>
          </mxGeometry>
        </mxCell>
        <mxCell id="nreC14nt42jZaOP40qbg-20" value="9" style="ellipse;whiteSpace=wrap;html=1;aspect=fixed;" vertex="1" parent="1">
          <mxGeometry x="620" y="580" width="80" height="80" as="geometry" />
        </mxCell>
        <mxCell id="nreC14nt42jZaOP40qbg-34" value="!hoursString.equals(&quot;&quot;)&lt;br&gt;&amp;amp;&amp;amp;&lt;br&gt;!minutesString.equals(&quot;&quot;)" style="rounded=0;orthogonalLoop=1;jettySize=auto;html=1;" edge="1" parent="1" source="nreC14nt42jZaOP40qbg-27" target="nreC14nt42jZaOP40qbg-33">
          <mxGeometry relative="1" as="geometry" />
        </mxCell>
        <mxCell id="nreC14nt42jZaOP40qbg-37" style="edgeStyle=none;rounded=0;orthogonalLoop=1;jettySize=auto;html=1;" edge="1" parent="1" source="nreC14nt42jZaOP40qbg-27" target="nreC14nt42jZaOP40qbg-35">
          <mxGeometry relative="1" as="geometry" />
        </mxCell>
        <mxCell id="nreC14nt42jZaOP40qbg-27" value="10" style="ellipse;whiteSpace=wrap;html=1;aspect=fixed;" vertex="1" parent="1">
          <mxGeometry x="380" y="740" width="80" height="80" as="geometry" />
        </mxCell>
        <mxCell id="nreC14nt42jZaOP40qbg-36" value="minutesString =&lt;br&gt;&quot; &quot; + minutesString" style="edgeStyle=none;rounded=0;orthogonalLoop=1;jettySize=auto;html=1;" edge="1" parent="1" source="nreC14nt42jZaOP40qbg-33" target="nreC14nt42jZaOP40qbg-35">
          <mxGeometry relative="1" as="geometry" />
        </mxCell>
        <mxCell id="nreC14nt42jZaOP40qbg-33" value="11" style="ellipse;whiteSpace=wrap;html=1;aspect=fixed;" vertex="1" parent="1">
          <mxGeometry x="220" y="900" width="80" height="80" as="geometry" />
        </mxCell>
        <mxCell id="nreC14nt42jZaOP40qbg-35" value="12" style="ellipse;whiteSpace=wrap;html=1;aspect=fixed;" vertex="1" parent="1">
          <mxGeometry x="380" y="1060" width="80" height="80" as="geometry" />
        </mxCell>
        <mxCell id="nreC14nt42jZaOP40qbg-42" value="tcal&lt;br&gt;.getTime()&lt;br&gt;.after(dcal.getTime())" style="edgeStyle=none;rounded=0;orthogonalLoop=1;jettySize=auto;html=1;" edge="1" parent="1" source="nreC14nt42jZaOP40qbg-38" target="nreC14nt42jZaOP40qbg-41">
          <mxGeometry relative="1" as="geometry" />
        </mxCell>
        <mxCell id="nreC14nt42jZaOP40qbg-44" value="" style="edgeStyle=none;rounded=0;orthogonalLoop=1;jettySize=auto;html=1;" edge="1" parent="1" source="nreC14nt42jZaOP40qbg-38" target="nreC14nt42jZaOP40qbg-40">
          <mxGeometry relative="1" as="geometry" />
        </mxCell>
        <mxCell id="nreC14nt42jZaOP40qbg-38" value="1" style="ellipse;whiteSpace=wrap;html=1;aspect=fixed;" vertex="1" parent="1">
          <mxGeometry x="1201" y="120" width="80" height="80" as="geometry" />
        </mxCell>
        <mxCell id="nreC14nt42jZaOP40qbg-39" value="&lt;b&gt;Date &lt;/b&gt;d1&lt;br&gt;&lt;b&gt;Date &lt;/b&gt;d2" style="endArrow=classic;html=1;entryX=0.5;entryY=0;entryDx=0;entryDy=0;" edge="1" parent="1" target="nreC14nt42jZaOP40qbg-38">
          <mxGeometry x="-0.1111" width="50" height="50" relative="1" as="geometry">
            <mxPoint x="1241" y="40" as="sourcePoint" />
            <mxPoint x="430" y="130" as="targetPoint" />
            <mxPoint as="offset" />
          </mxGeometry>
        </mxCell>
        <mxCell id="nreC14nt42jZaOP40qbg-40" value="3" style="ellipse;whiteSpace=wrap;html=1;aspect=fixed;" vertex="1" parent="1">
          <mxGeometry x="1201" y="440" width="80" height="80" as="geometry" />
        </mxCell>
        <mxCell id="nreC14nt42jZaOP40qbg-43" value="return true" style="edgeStyle=none;rounded=0;orthogonalLoop=1;jettySize=auto;html=1;" edge="1" parent="1" source="nreC14nt42jZaOP40qbg-41" target="nreC14nt42jZaOP40qbg-40">
          <mxGeometry relative="1" as="geometry" />
        </mxCell>
        <mxCell id="nreC14nt42jZaOP40qbg-41" value="2" style="ellipse;whiteSpace=wrap;html=1;aspect=fixed;" vertex="1" parent="1">
          <mxGeometry x="1040" y="280" width="80" height="80" as="geometry" />
        </mxCell>
        <mxCell id="nreC14nt42jZaOP40qbg-45" value="tcal.setTime(d1)&lt;br&gt;dcal.setTime(d2)" style="text;html=1;strokeColor=none;fillColor=none;align=center;verticalAlign=middle;whiteSpace=wrap;rounded=0;" vertex="1" parent="1">
          <mxGeometry x="1082" y="140" width="119" height="40" as="geometry" />
        </mxCell>
        <mxCell id="nreC14nt42jZaOP40qbg-46" value="dd == null" style="edgeStyle=none;rounded=0;orthogonalLoop=1;jettySize=auto;html=1;" edge="1" source="nreC14nt42jZaOP40qbg-48" target="nreC14nt42jZaOP40qbg-52" parent="1">
          <mxGeometry relative="1" as="geometry" />
        </mxCell>
        <mxCell id="nreC14nt42jZaOP40qbg-47" value="" style="edgeStyle=none;rounded=0;orthogonalLoop=1;jettySize=auto;html=1;" edge="1" source="nreC14nt42jZaOP40qbg-48" target="nreC14nt42jZaOP40qbg-50" parent="1">
          <mxGeometry relative="1" as="geometry" />
        </mxCell>
        <mxCell id="nreC14nt42jZaOP40qbg-48" value="1" style="ellipse;whiteSpace=wrap;html=1;aspect=fixed;" vertex="1" parent="1">
          <mxGeometry x="-439" y="120" width="80" height="80" as="geometry" />
        </mxCell>
        <mxCell id="nreC14nt42jZaOP40qbg-49" value="&lt;b&gt;Date &lt;/b&gt;start&lt;br&gt;&lt;b&gt;Date &lt;/b&gt;dd" style="endArrow=classic;html=1;entryX=0.5;entryY=0;entryDx=0;entryDy=0;" edge="1" target="nreC14nt42jZaOP40qbg-48" parent="1">
          <mxGeometry x="-0.1111" width="50" height="50" relative="1" as="geometry">
            <mxPoint x="-399" y="40" as="sourcePoint" />
            <mxPoint x="-1210" y="130" as="targetPoint" />
            <mxPoint as="offset" />
          </mxGeometry>
        </mxCell>
        <mxCell id="nreC14nt42jZaOP40qbg-57" value="dcal.get(Calendar.YEAR) &lt;br&gt;==&lt;br&gt;startcal.get(Calendar.YEAR)" style="edgeStyle=none;rounded=0;orthogonalLoop=1;jettySize=auto;html=1;" edge="1" parent="1" source="nreC14nt42jZaOP40qbg-50" target="nreC14nt42jZaOP40qbg-55">
          <mxGeometry relative="1" as="geometry" />
        </mxCell>
        <mxCell id="nreC14nt42jZaOP40qbg-59" value="dcal.get(Calendar.YEAR)&lt;br&gt;!=&lt;br&gt;startcal.get(Calendar.YEAR)" style="edgeStyle=none;rounded=0;orthogonalLoop=1;jettySize=auto;html=1;" edge="1" parent="1" source="nreC14nt42jZaOP40qbg-50" target="nreC14nt42jZaOP40qbg-56">
          <mxGeometry relative="1" as="geometry" />
        </mxCell>
        <mxCell id="nreC14nt42jZaOP40qbg-50" value="3" style="ellipse;whiteSpace=wrap;html=1;aspect=fixed;" vertex="1" parent="1">
          <mxGeometry x="-439" y="360" width="80" height="80" as="geometry" />
        </mxCell>
        <mxCell id="nreC14nt42jZaOP40qbg-51" value="return 0" style="edgeStyle=none;rounded=0;orthogonalLoop=1;jettySize=auto;html=1;" edge="1" source="nreC14nt42jZaOP40qbg-52" target="nreC14nt42jZaOP40qbg-50" parent="1">
          <mxGeometry relative="1" as="geometry" />
        </mxCell>
        <mxCell id="nreC14nt42jZaOP40qbg-52" value="2" style="ellipse;whiteSpace=wrap;html=1;aspect=fixed;" vertex="1" parent="1">
          <mxGeometry x="-560" y="240" width="80" height="80" as="geometry" />
        </mxCell>
        <mxCell id="nreC14nt42jZaOP40qbg-54" value="&lt;b&gt;Calendar&lt;/b&gt; startcal = new GregorianCalendar()&lt;br&gt;&lt;b&gt;Calendar&lt;/b&gt;&amp;nbsp;dcal = new GregorianCalendar()&lt;br&gt;startcal.setTime(start)&lt;br&gt;dcal.setTime(dd)&lt;br&gt;&lt;b&gt;int&lt;/b&gt; days = 0" style="text;html=1;strokeColor=none;fillColor=none;align=center;verticalAlign=middle;whiteSpace=wrap;rounded=0;" vertex="1" parent="1">
          <mxGeometry x="-360" y="360" width="279" height="80" as="geometry" />
        </mxCell>
        <mxCell id="nreC14nt42jZaOP40qbg-61" value="&lt;div&gt;days =&amp;nbsp;&lt;/div&gt;&lt;div&gt;dcal.get(Calendar.DAY_OF_YEAR)&lt;/div&gt;&lt;div&gt;&lt;span&gt;					&lt;/span&gt;- startcal.get(Calendar.DAY_OF_YEAR);&lt;/div&gt;" style="edgeStyle=none;rounded=0;orthogonalLoop=1;jettySize=auto;html=1;" edge="1" parent="1" source="nreC14nt42jZaOP40qbg-55" target="nreC14nt42jZaOP40qbg-60">
          <mxGeometry x="-0.1973" relative="1" as="geometry">
            <mxPoint as="offset" />
          </mxGeometry>
        </mxCell>
        <mxCell id="nreC14nt42jZaOP40qbg-55" value="4" style="ellipse;whiteSpace=wrap;html=1;aspect=fixed;" vertex="1" parent="1">
          <mxGeometry x="-600" y="520" width="80" height="80" as="geometry" />
        </mxCell>
        <mxCell id="nreC14nt42jZaOP40qbg-62" value="&lt;div&gt;days =&amp;nbsp;&lt;/div&gt;&lt;div&gt;Long.valueOf((dd.getTime()&amp;nbsp;&lt;/div&gt;&lt;div&gt;- startcal.getTime().getTime())&lt;/div&gt;&lt;div&gt;&lt;span&gt;					&lt;/span&gt;/ (1000 * 60 * 60 * 24)).intValue();&lt;/div&gt;" style="edgeStyle=none;rounded=0;orthogonalLoop=1;jettySize=auto;html=1;" edge="1" parent="1" source="nreC14nt42jZaOP40qbg-56" target="nreC14nt42jZaOP40qbg-60">
          <mxGeometry x="-0.3838" relative="1" as="geometry">
            <mxPoint as="offset" />
          </mxGeometry>
        </mxCell>
        <mxCell id="nreC14nt42jZaOP40qbg-56" value="5" style="ellipse;whiteSpace=wrap;html=1;aspect=fixed;" vertex="1" parent="1">
          <mxGeometry x="-280" y="520" width="80" height="80" as="geometry" />
        </mxCell>
        <mxCell id="nreC14nt42jZaOP40qbg-65" value="" style="edgeStyle=none;rounded=0;orthogonalLoop=1;jettySize=auto;html=1;" edge="1" parent="1" source="nreC14nt42jZaOP40qbg-60" target="nreC14nt42jZaOP40qbg-64">
          <mxGeometry relative="1" as="geometry" />
        </mxCell>
        <mxCell id="nreC14nt42jZaOP40qbg-67" value="days &amp;lt; 0" style="edgeStyle=none;rounded=0;orthogonalLoop=1;jettySize=auto;html=1;" edge="1" parent="1" source="nreC14nt42jZaOP40qbg-60" target="nreC14nt42jZaOP40qbg-66">
          <mxGeometry relative="1" as="geometry" />
        </mxCell>
        <mxCell id="nreC14nt42jZaOP40qbg-60" value="6" style="ellipse;whiteSpace=wrap;html=1;aspect=fixed;" vertex="1" parent="1">
          <mxGeometry x="-439" y="680" width="80" height="80" as="geometry" />
        </mxCell>
        <mxCell id="nreC14nt42jZaOP40qbg-64" value="8" style="ellipse;whiteSpace=wrap;html=1;aspect=fixed;" vertex="1" parent="1">
          <mxGeometry x="-440" y="920" width="80" height="80" as="geometry" />
        </mxCell>
        <mxCell id="nreC14nt42jZaOP40qbg-68" value="days = 0" style="edgeStyle=none;rounded=0;orthogonalLoop=1;jettySize=auto;html=1;" edge="1" parent="1" source="nreC14nt42jZaOP40qbg-66" target="nreC14nt42jZaOP40qbg-64">
          <mxGeometry relative="1" as="geometry" />
        </mxCell>
        <mxCell id="nreC14nt42jZaOP40qbg-66" value="7" style="ellipse;whiteSpace=wrap;html=1;aspect=fixed;" vertex="1" parent="1">
          <mxGeometry x="-560" y="800" width="80" height="80" as="geometry" />
        </mxCell>
        <mxCell id="nreC14nt42jZaOP40qbg-70" value="return days" style="text;html=1;strokeColor=none;fillColor=none;align=center;verticalAlign=middle;whiteSpace=wrap;rounded=0;" vertex="1" parent="1">
          <mxGeometry x="-359" y="950" width="79" height="20" as="geometry" />
        </mxCell>
        <mxCell id="nreC14nt42jZaOP40qbg-71" value="return hoursString + minutesString" style="text;html=1;strokeColor=none;fillColor=none;align=center;verticalAlign=middle;whiteSpace=wrap;rounded=0;" vertex="1" parent="1">
          <mxGeometry x="460" y="1090" width="200" height="20" as="geometry" />
        </mxCell>
        <mxCell id="nreC14nt42jZaOP40qbg-72" value="return false" style="text;html=1;strokeColor=none;fillColor=none;align=center;verticalAlign=middle;whiteSpace=wrap;rounded=0;" vertex="1" parent="1">
          <mxGeometry x="1281" y="470" width="79" height="20" as="geometry" />
        </mxCell>
      </root>
    </mxGraphModel>
  </diagram>
</mxfile>
